<?xml version="1.0"?>
<svg xmlns="http://www.w3.org/2000/svg" id="Line_expand" data-name="Line expand" width="512" height="512" viewBox="0 0 512 512"><g id="_03_copy_3" data-name="03 copy 3"><g><path d="M488.511,71.176A8,8,0,0,0,496,63.192v-39a8,8,0,0,0-8.806-7.959l-56,5.67,1.612,15.919L480,33.042V55.688L245.124,70.729l2.445-13.867c.017-.1.034-.194.05-.291L416.806,39.44l-1.612-15.919L245.615,40.692A28.028,28.028,0,0,0,220,24H164.612a27.96,27.96,0,0,0-27.575,23.138l-.816,4.631L98.037,55.635A20.351,20.351,0,0,0,80.081,77.562,20.057,20.057,0,0,0,84.238,88.1,20.055,20.055,0,0,0,80.081,98.63,20.364,20.364,0,0,0,98.1,120.562l25.532,2.586-4.936,27.99A28,28,0,0,0,146.273,184h55.384a27.959,27.959,0,0,0,27.574-23.138l4.681-26.548,253.282,25.645q.4.04.806.041a8,8,0,0,0,8-8V113a8,8,0,0,0-7.489-7.984l-246.647-15.8.4-2.273ZM229.187,44.287l.1.116a103.755,103.755,0,0,1-29.276,42.135l-53.071-3.4.577-3.276q2.155.135,4.317.136a68.139,68.139,0,0,0,61.984-40H220A11.969,11.969,0,0,1,229.187,44.287ZM164.612,40H195.66a52.124,52.124,0,0,1-43.83,24q-.759,0-1.515-.023l2.479-14.061A11.982,11.982,0,0,1,164.612,40Zm-64.9,31.547,33.619-3.4L131.6,78l-31.058,1.989a4.243,4.243,0,0,1-.823-8.442Zm102.624,59.57A143.889,143.889,0,0,1,134.6,158.786a11.994,11.994,0,0,1-.143-4.87l5.14-29.152ZM201.657,168H165.835a160.278,160.278,0,0,0,50.781-27.736l-3.142,17.82A11.982,11.982,0,0,1,201.657,168ZM480,143.149l-380.219-38.5a4.242,4.242,0,0,1,.5-8.458c.1,0,.2,0,.3.011L480,120.5ZM221.374,87.907q2.971-3.324,5.683-6.851L225.8,88.19Z"/><path d="M488.022,416H466.8q1.306-2.156,2.568-4.339c22.9-39.665,31.959-81.787,23.642-109.929a8,8,0,0,0-9.544-5.51c-25.136,6.051-52.794,28.974-74.884,61.82a38.606,38.606,0,0,0-18.422.322l9.434-53.5A28,28,0,0,0,372.016,272H316.633a28.083,28.083,0,0,0-12.3,2.849A27.983,27.983,0,0,0,292.016,272H236.633a27.96,27.96,0,0,0-27.574,23.138L199.032,352H99.248a189.64,189.64,0,0,0-30.019-33.092L58.815,331.054A167.09,167.09,0,0,1,79.071,352H76.558a8,8,0,0,0-7.762,9.94l10.319,41.276A38.014,38.014,0,0,0,84.982,416H64.218c-2.677-3.993-5.253-8.129-7.683-12.339C38.253,372,29.362,338.113,32.668,314.338a78.676,78.676,0,0,1,11.185,5.728L52.19,306.41a83.253,83.253,0,0,0-23.61-10.188,8,8,0,0,0-9.544,5.51c-8.317,28.142.742,70.264,23.642,109.929q1.26,2.182,2.568,4.339H24.022a8,8,0,0,0-8,8v12a28.031,28.031,0,0,0,28,28h4v14a18.02,18.02,0,0,0,18,18h60a18.021,18.021,0,0,0,18-18V464h176V448h-276a12.013,12.013,0,0,1-12-12v-4h448v4a12.014,12.014,0,0,1-12,12h-132v16h32v14a18.02,18.02,0,0,0,18,18h60a18.021,18.021,0,0,0,18-18V464h4a28.032,28.032,0,0,0,28-28V424A8,8,0,0,0,488.022,416Zm-360,48v14a2,2,0,0,1-2,2h-60a2,2,0,0,1-2-2V464ZM479.374,314.322c3.311,23.775-5.579,57.666-23.866,89.339q-2.3,3.992-4.773,7.878L434.01,378.088a38.049,38.049,0,0,0-10.776-13.135C440.239,340.32,460.754,321.859,479.374,314.322ZM317.866,416A161.043,161.043,0,0,0,356.5,397.164L347.077,416Zm-108.828-9.548q.547-1.584.962-3.236l6.984-27.935a120.72,120.72,0,0,0,82.116-46.35l-5.852,33.188A143.428,143.428,0,0,1,209.038,406.452Zm164.21-44.333a144.871,144.871,0,0,1-71.119,41.772l5.329-30.219a120.3,120.3,0,0,0,71.627-44.657ZM317.319,288h30.363a52.211,52.211,0,0,1-28.966,21.826l.875-4.964A27.93,27.93,0,0,0,317.319,288Zm63.89,4.287.1.116a104.281,104.281,0,0,1-70.829,64.151l5.219-29.595A68.177,68.177,0,0,0,365.835,288h6.181A11.971,11.971,0,0,1,381.209,292.287Zm-80,0c.032.038.064.076.095.115a104.573,104.573,0,0,1-80.859,66.265,8,8,0,0,0-5.245-6.218l4.335-24.585q2.156.135,4.316.136a68.138,68.138,0,0,0,61.984-40h6.181A11.971,11.971,0,0,1,301.209,292.287ZM236.633,288h31.049a52.126,52.126,0,0,1-43.831,24q-.757,0-1.515-.023l2.48-14.061A11.982,11.982,0,0,1,236.633,288ZM115.981,416a21.968,21.968,0,0,1-21.343-16.665L86.8,368H202.312l-7.834,31.335A21.97,21.97,0,0,1,173.134,416Zm121.983,0a159.169,159.169,0,0,0,50.669-27.711l-3.137,17.8A11.983,11.983,0,0,1,273.678,416Zm127,0,15.378-30.757a22,22,0,0,1,39.355,0L435.077,416Zm83.056,62a2,2,0,0,1-2,2h-60a2,2,0,0,1-2-2V464h64Z"/><path d="M128,328a24.027,24.027,0,0,1-24-24c0-9.316,7.481-40,24-40s24,30.684,24,40A24.027,24.027,0,0,1,128,328Zm0-47.324c-3.43,3.836-8,16.717-8,23.324a8,8,0,0,0,16,0C136,297.393,131.43,284.512,128,280.676Z"/><path d="M171.8,256c-11.089,0-20.111-9.43-20.111-21.021,0-6.93,5.249-34.043,20.111-34.043s20.111,27.113,20.111,34.043C191.911,246.57,182.889,256,171.8,256Zm0-36.444c-2.055,4.3-4.111,11.5-4.111,15.423,0,2.722,1.883,5.021,4.111,5.021s4.111-2.3,4.111-5.021C175.911,231.06,173.855,223.859,171.8,219.556Z"/></g></g></svg>
